<?xml version="1.0" encoding="UTF-8"?>
<svg version="1.1" xmlns="http://www.w3.org/2000/svg" width="512" height="512">
<path d="M0 0 C9.01643625 7.03880521 15.1108423 16.14007339 17.25 27.4375 C18.59487447 41.40458172 16.14683363 52.79280165 7.37890625 64.03125 C1.29627754 70.90629456 -5.15372275 73.53010125 -13.75 77.4375 C-14.08 91.6275 -14.41 105.8175 -14.75 120.4375 C-10.68776123 120.42178955 -6.62552246 120.4060791 -2.44018555 120.38989258 C10.99874106 120.34012803 24.43766631 120.30687049 37.87666035 120.28206348 C46.02272059 120.26662551 54.16869325 120.24559505 62.31469727 120.21118164 C69.41864702 120.1811849 76.52253332 120.16190271 83.62654465 120.15523452 C87.38455104 120.15133957 91.14237592 120.14225077 94.90032387 120.12030983 C98.44535584 120.09978184 101.99013343 120.0936987 105.53521919 120.09817696 C107.44039296 120.09697217 109.34553971 120.08091609 111.25064087 120.0642395 C126.81758998 120.11960903 140.63795944 125.08723728 151.99609375 135.953125 C159.6016844 144.33641036 166.39855289 156.11794072 166.36352539 167.74707031 C166.36344986 168.58763977 166.36337433 169.42820923 166.36329651 170.29425049 C166.35813522 171.19230408 166.35297394 172.09035767 166.34765625 173.015625 C166.34553383 174.40548615 166.34553383 174.40548615 166.34336853 175.82342529 C166.33777824 178.77814992 166.3252275 181.73279833 166.3125 184.6875 C166.30748375 186.69270724 166.30292106 188.69791567 166.29882812 190.703125 C166.28781199 195.61461263 166.270554 200.5260434 166.25 205.4375 C167.85270752 205.41393433 167.85270752 205.41393433 169.48779297 205.38989258 C173.49471339 205.33512926 177.50160151 205.30098312 181.50878906 205.27270508 C183.23508284 205.25772325 184.96133926 205.23733061 186.6875 205.21118164 C199.32522424 205.02468745 210.0588113 204.91438982 220.20703125 213.41015625 C227.42465573 220.57257901 230.4516618 228.12156991 230.54327393 238.19171143 C230.54236755 239.20328308 230.54146118 240.21485474 230.54052734 241.25708008 C230.55060318 242.87530922 230.55060318 242.87530922 230.56088257 244.52622986 C230.57985354 248.08654407 230.58378637 251.64666966 230.5859375 255.20703125 C230.59236612 257.68796363 230.59909453 260.16889526 230.60610962 262.64982605 C230.6180802 267.84900673 230.62179067 273.04812097 230.62060547 278.24731445 C230.62040231 284.89850541 230.64770209 291.54911921 230.68214989 298.2002306 C230.70442412 303.32445723 230.70844283 308.44858109 230.70738602 313.57285118 C230.70974125 316.024375 230.71856033 318.47590169 230.73405075 320.9273777 C230.75372002 324.36179881 230.74786805 327.79529933 230.73583984 331.22973633 C230.74707886 332.23523529 230.75831787 333.24073425 230.76989746 334.27670288 C230.68580817 343.76006755 227.61233559 350.72948615 221.17578125 357.6484375 C213.76337544 364.5346076 206.0648008 366.7575205 196.1328125 366.6328125 C195.27565643 366.6299826 194.41850037 366.62715271 193.53536987 366.62423706 C190.81510068 366.61309999 188.09516859 366.5880076 185.375 366.5625 C183.52344228 366.55246182 181.67187936 366.54333744 179.8203125 366.53515625 C175.2967464 366.51318188 170.77343023 366.478697 166.25 366.4375 C166.26571045 367.65743652 166.2814209 368.87737305 166.29760742 370.13427734 C166.35228629 374.70028977 166.38648707 379.26627379 166.41479492 383.83251953 C166.42979561 385.80131919 166.45020283 387.77008593 166.47631836 389.73876953 C166.51308815 392.58374198 166.52981387 395.42826913 166.54296875 398.2734375 C166.55845261 399.14052338 166.57393646 400.00760925 166.58988953 400.90097046 C166.59382762 415.50186397 160.10433687 427.49063851 150.078125 437.734375 C141.50140033 445.93201792 130.17329045 451.55221898 118.13176537 451.56892776 C117.09191628 451.57276891 116.05206719 451.57661005 114.98070753 451.5805676 C113.8396775 451.57970112 112.69864747 451.57883463 111.52304077 451.57794189 C110.30978013 451.58091302 109.09651948 451.58388414 107.84649336 451.5869453 C104.47715226 451.59412602 101.10786214 451.59680465 97.73851705 451.59754276 C94.10509117 451.59939404 90.47167633 451.60694183 86.83825684 451.61367798 C78.89179622 451.62725981 70.94534066 451.633286 62.99887037 451.63768864 C58.0357919 451.64045174 53.07271537 451.64468926 48.10963821 451.64919281 C34.36525024 451.66138609 20.62086383 451.67168476 6.87647057 451.6750679 C5.55693249 451.67539725 5.55693249 451.67539725 4.21073709 451.67573325 C3.32894958 451.67595153 2.44716207 451.67616981 1.53865373 451.6763947 C-0.24815663 451.67683817 -2.03496699 451.67728473 -3.82177734 451.67773438 C-4.70809544 451.6779558 -5.59441353 451.67817723 -6.50758974 451.67840537 C-20.86275853 451.68235171 -35.2178765 451.69980043 -49.57302566 451.7230939 C-64.31534438 451.74682222 -79.05763763 451.75927045 -93.79997575 451.76043582 C-102.07553714 451.76135183 -110.35103234 451.76708545 -118.62657547 451.78525543 C-125.67495357 451.80067652 -132.72324503 451.80576511 -139.7716368 451.79751733 C-143.36579167 451.7936177 -146.9597722 451.79450656 -150.55390549 451.80857468 C-154.45639129 451.82370954 -158.35863342 451.81542655 -162.26113892 451.80499268 C-163.95260746 451.81707728 -163.95260746 451.81707728 -165.67824709 451.82940602 C-180.544756 451.73658898 -192.70596099 446.06025448 -203.4609375 435.8515625 C-211.52413754 427.34805119 -217.89973867 416.15073942 -217.86352539 404.12792969 C-217.86344986 403.28736023 -217.86337433 402.44679077 -217.86329651 401.58074951 C-217.85813522 400.68269592 -217.85297394 399.78464233 -217.84765625 398.859375 C-217.8462413 397.9328009 -217.84482635 397.00622681 -217.84336853 396.05157471 C-217.83777824 393.09685008 -217.8252275 390.14220167 -217.8125 387.1875 C-217.80748375 385.18229276 -217.80292106 383.17708433 -217.79882812 381.171875 C-217.78781199 376.26038737 -217.770554 371.3489566 -217.75 366.4375 C-219.42787598 366.47677612 -219.42787598 366.47677612 -221.13964844 366.5168457 C-225.34402967 366.60828127 -229.54832568 366.66508346 -233.75341797 366.7121582 C-235.56313929 366.73709214 -237.37276214 366.77105243 -239.18212891 366.81469727 C-252.14062697 367.11913959 -263.13261395 366.81278431 -273.25 357.625 C-278.33826172 352.03954847 -281.84615796 345.51419529 -281.91062927 337.86756897 C-281.9206749 336.92998749 -281.93072052 335.99240601 -281.94107056 335.02641296 C-281.94690155 333.99941788 -281.95273254 332.97242279 -281.95874023 331.91430664 C-281.96852402 330.8309906 -281.9783078 329.74767456 -281.98838806 328.63153076 C-282.01836288 325.03691842 -282.03973853 321.44234352 -282.05859375 317.84765625 C-282.06516558 316.61870573 -282.0717374 315.38975521 -282.07850838 314.12356377 C-282.10775451 308.28443614 -282.13166651 302.44532411 -282.1489405 296.60614878 C-282.16722577 290.55611168 -282.200462 284.5065885 -282.25756836 278.45678711 C-282.31791478 271.95637725 -282.34852606 265.45645476 -282.35820198 258.95577812 C-282.36673664 256.4843625 -282.38550509 254.01295918 -282.4149456 251.54170418 C-282.71240884 225.14147354 -282.71240884 225.14147354 -273.77098083 215.24769592 C-266.8966256 208.4606439 -258.17665177 205.3232323 -248.65557861 205.32420349 C-247.47255157 205.33194542 -247.47255157 205.33194542 -246.265625 205.33984375 C-245.04223419 205.34196617 -245.04223419 205.34196617 -243.79412842 205.34413147 C-241.19604788 205.34971697 -238.59805437 205.36226679 -236 205.375 C-234.23567833 205.38001688 -232.47135531 205.38457946 -230.70703125 205.38867188 C-226.38798744 205.39968165 -222.06900846 205.41693631 -217.75 205.4375 C-217.77094727 204.22803711 -217.79189453 203.01857422 -217.81347656 201.77246094 C-217.8865484 197.23254503 -217.93204117 192.69267976 -217.96972656 188.15234375 C-217.98969039 186.19717634 -218.01687136 184.24206745 -218.05175781 182.28710938 C-218.3789549 163.46365347 -215.34167895 148.86414163 -202.1484375 134.609375 C-192.37539075 125.75951507 -180.19518724 120.3050483 -166.98564148 120.31724548 C-165.83444321 120.31587082 -164.68324493 120.31449615 -163.49716187 120.31307983 C-162.24343781 120.31667511 -160.98971375 120.32027039 -159.69799805 120.32397461 C-158.35737612 120.32425684 -157.01675404 120.32409804 -155.6761322 120.3235321 C-152.04429911 120.32324555 -148.41249914 120.32911945 -144.78067374 120.33610606 C-140.98234968 120.34236311 -137.18402483 120.34294526 -133.38569641 120.34413147 C-126.19641425 120.34723785 -119.00714732 120.3554419 -111.81787187 120.36548096 C-103.63169854 120.37666361 -95.44552448 120.38215797 -87.25934541 120.38717639 C-70.42288662 120.39762509 -53.58644881 120.41596196 -36.75 120.4375 C-37.08 106.2475 -37.41 92.0575 -37.75 77.4375 C-42.37 75.1275 -46.99 72.8175 -51.75 70.4375 C-61.79852351 62.06373041 -67.84415619 52.75741879 -69.12890625 39.5390625 C-69.69136817 27.0858273 -66.80021159 16.87716568 -59.07421875 6.98046875 C-43.45752438 -10.10603215 -19.13413538 -12.78233735 0 0 Z " fill="#EEF2F8" transform="translate(281.75,28.5625)"/>
<path d="M0 0 C9.01643625 7.03880521 15.1108423 16.14007339 17.25 27.4375 C18.59487447 41.40458172 16.14683363 52.79280165 7.37890625 64.03125 C1.29627754 70.90629456 -5.15372275 73.53010125 -13.75 77.4375 C-14.08 91.6275 -14.41 105.8175 -14.75 120.4375 C-10.68776123 120.42178955 -6.62552246 120.4060791 -2.44018555 120.38989258 C10.99874106 120.34012803 24.43766631 120.30687049 37.87666035 120.28206348 C46.02272059 120.26662551 54.16869325 120.24559505 62.31469727 120.21118164 C69.41864702 120.1811849 76.52253332 120.16190271 83.62654465 120.15523452 C87.38455104 120.15133957 91.14237592 120.14225077 94.90032387 120.12030983 C98.44535584 120.09978184 101.99013343 120.0936987 105.53521919 120.09817696 C107.44039296 120.09697217 109.34553971 120.08091609 111.25064087 120.0642395 C126.81758998 120.11960903 140.63795944 125.08723728 151.99609375 135.953125 C159.6016844 144.33641036 166.39855289 156.11794072 166.36352539 167.74707031 C166.36344986 168.58763977 166.36337433 169.42820923 166.36329651 170.29425049 C166.35813522 171.19230408 166.35297394 172.09035767 166.34765625 173.015625 C166.34553383 174.40548615 166.34553383 174.40548615 166.34336853 175.82342529 C166.33777824 178.77814992 166.3252275 181.73279833 166.3125 184.6875 C166.30748375 186.69270724 166.30292106 188.69791567 166.29882812 190.703125 C166.28781199 195.61461263 166.270554 200.5260434 166.25 205.4375 C167.85270752 205.41393433 167.85270752 205.41393433 169.48779297 205.38989258 C173.49471339 205.33512926 177.50160151 205.30098312 181.50878906 205.27270508 C183.23508284 205.25772325 184.96133926 205.23733061 186.6875 205.21118164 C199.32522424 205.02468745 210.0588113 204.91438982 220.20703125 213.41015625 C227.42465573 220.57257901 230.4516618 228.12156991 230.54327393 238.19171143 C230.54236755 239.20328308 230.54146118 240.21485474 230.54052734 241.25708008 C230.55060318 242.87530922 230.55060318 242.87530922 230.56088257 244.52622986 C230.57985354 248.08654407 230.58378637 251.64666966 230.5859375 255.20703125 C230.59236612 257.68796363 230.59909453 260.16889526 230.60610962 262.64982605 C230.6180802 267.84900673 230.62179067 273.04812097 230.62060547 278.24731445 C230.62040231 284.89850541 230.64770209 291.54911921 230.68214989 298.2002306 C230.70442412 303.32445723 230.70844283 308.44858109 230.70738602 313.57285118 C230.70974125 316.024375 230.71856033 318.47590169 230.73405075 320.9273777 C230.75372002 324.36179881 230.74786805 327.79529933 230.73583984 331.22973633 C230.74707886 332.23523529 230.75831787 333.24073425 230.76989746 334.27670288 C230.68580817 343.76006755 227.61233559 350.72948615 221.17578125 357.6484375 C213.76337544 364.5346076 206.0648008 366.7575205 196.1328125 366.6328125 C195.27565643 366.6299826 194.41850037 366.62715271 193.53536987 366.62423706 C190.81510068 366.61309999 188.09516859 366.5880076 185.375 366.5625 C183.52344228 366.55246182 181.67187936 366.54333744 179.8203125 366.53515625 C175.2967464 366.51318188 170.77343023 366.478697 166.25 366.4375 C166.26571045 367.65743652 166.2814209 368.87737305 166.29760742 370.13427734 C166.35228629 374.70028977 166.38648707 379.26627379 166.41479492 383.83251953 C166.42979561 385.80131919 166.45020283 387.77008593 166.47631836 389.73876953 C166.51308815 392.58374198 166.52981387 395.42826913 166.54296875 398.2734375 C166.55845261 399.14052338 166.57393646 400.00760925 166.58988953 400.90097046 C166.59382762 415.50186397 160.10433687 427.49063851 150.078125 437.734375 C141.50140033 445.93201792 130.17329045 451.55221898 118.13176537 451.56892776 C117.09191628 451.57276891 116.05206719 451.57661005 114.98070753 451.5805676 C113.8396775 451.57970112 112.69864747 451.57883463 111.52304077 451.57794189 C110.30978013 451.58091302 109.09651948 451.58388414 107.84649336 451.5869453 C104.47715226 451.59412602 101.10786214 451.59680465 97.73851705 451.59754276 C94.10509117 451.59939404 90.47167633 451.60694183 86.83825684 451.61367798 C78.89179622 451.62725981 70.94534066 451.633286 62.99887037 451.63768864 C58.0357919 451.64045174 53.07271537 451.64468926 48.10963821 451.64919281 C34.36525024 451.66138609 20.62086383 451.67168476 6.87647057 451.6750679 C5.55693249 451.67539725 5.55693249 451.67539725 4.21073709 451.67573325 C3.32894958 451.67595153 2.44716207 451.67616981 1.53865373 451.6763947 C-0.24815663 451.67683817 -2.03496699 451.67728473 -3.82177734 451.67773438 C-4.70809544 451.6779558 -5.59441353 451.67817723 -6.50758974 451.67840537 C-20.86275853 451.68235171 -35.2178765 451.69980043 -49.57302566 451.7230939 C-64.31534438 451.74682222 -79.05763763 451.75927045 -93.79997575 451.76043582 C-102.07553714 451.76135183 -110.35103234 451.76708545 -118.62657547 451.78525543 C-125.67495357 451.80067652 -132.72324503 451.80576511 -139.7716368 451.79751733 C-143.36579167 451.7936177 -146.9597722 451.79450656 -150.55390549 451.80857468 C-154.45639129 451.82370954 -158.35863342 451.81542655 -162.26113892 451.80499268 C-163.95260746 451.81707728 -163.95260746 451.81707728 -165.67824709 451.82940602 C-180.544756 451.73658898 -192.70596099 446.06025448 -203.4609375 435.8515625 C-211.52413754 427.34805119 -217.89973867 416.15073942 -217.86352539 404.12792969 C-217.86344986 403.28736023 -217.86337433 402.44679077 -217.86329651 401.58074951 C-217.85813522 400.68269592 -217.85297394 399.78464233 -217.84765625 398.859375 C-217.8462413 397.9328009 -217.84482635 397.00622681 -217.84336853 396.05157471 C-217.83777824 393.09685008 -217.8252275 390.14220167 -217.8125 387.1875 C-217.80748375 385.18229276 -217.80292106 383.17708433 -217.79882812 381.171875 C-217.78781199 376.26038737 -217.770554 371.3489566 -217.75 366.4375 C-219.42787598 366.47677612 -219.42787598 366.47677612 -221.13964844 366.5168457 C-225.34402967 366.60828127 -229.54832568 366.66508346 -233.75341797 366.7121582 C-235.56313929 366.73709214 -237.37276214 366.77105243 -239.18212891 366.81469727 C-252.14062697 367.11913959 -263.13261395 366.81278431 -273.25 357.625 C-278.33826172 352.03954847 -281.84615796 345.51419529 -281.91062927 337.86756897 C-281.9206749 336.92998749 -281.93072052 335.99240601 -281.94107056 335.02641296 C-281.94690155 333.99941788 -281.95273254 332.97242279 -281.95874023 331.91430664 C-281.96852402 330.8309906 -281.9783078 329.74767456 -281.98838806 328.63153076 C-282.01836288 325.03691842 -282.03973853 321.44234352 -282.05859375 317.84765625 C-282.06516558 316.61870573 -282.0717374 315.38975521 -282.07850838 314.12356377 C-282.10775451 308.28443614 -282.13166651 302.44532411 -282.1489405 296.60614878 C-282.16722577 290.55611168 -282.200462 284.5065885 -282.25756836 278.45678711 C-282.31791478 271.95637725 -282.34852606 265.45645476 -282.35820198 258.95577812 C-282.36673664 256.4843625 -282.38550509 254.01295918 -282.4149456 251.54170418 C-282.71240884 225.14147354 -282.71240884 225.14147354 -273.77098083 215.24769592 C-266.8966256 208.4606439 -258.17665177 205.3232323 -248.65557861 205.32420349 C-247.47255157 205.33194542 -247.47255157 205.33194542 -246.265625 205.33984375 C-245.04223419 205.34196617 -245.04223419 205.34196617 -243.79412842 205.34413147 C-241.19604788 205.34971697 -238.59805437 205.36226679 -236 205.375 C-234.23567833 205.38001688 -232.47135531 205.38457946 -230.70703125 205.38867188 C-226.38798744 205.39968165 -222.06900846 205.41693631 -217.75 205.4375 C-217.77094727 204.22803711 -217.79189453 203.01857422 -217.81347656 201.77246094 C-217.8865484 197.23254503 -217.93204117 192.69267976 -217.96972656 188.15234375 C-217.98969039 186.19717634 -218.01687136 184.24206745 -218.05175781 182.28710938 C-218.3789549 163.46365347 -215.34167895 148.86414163 -202.1484375 134.609375 C-192.37539075 125.75951507 -180.19518724 120.3050483 -166.98564148 120.31724548 C-165.83444321 120.31587082 -164.68324493 120.31449615 -163.49716187 120.31307983 C-162.24343781 120.31667511 -160.98971375 120.32027039 -159.69799805 120.32397461 C-158.35737612 120.32425684 -157.01675404 120.32409804 -155.6761322 120.3235321 C-152.04429911 120.32324555 -148.41249914 120.32911945 -144.78067374 120.33610606 C-140.98234968 120.34236311 -137.18402483 120.34294526 -133.38569641 120.34413147 C-126.19641425 120.34723785 -119.00714732 120.3554419 -111.81787187 120.36548096 C-103.63169854 120.37666361 -95.44552448 120.38215797 -87.25934541 120.38717639 C-70.42288662 120.39762509 -53.58644881 120.41596196 -36.75 120.4375 C-37.08 106.2475 -37.41 92.0575 -37.75 77.4375 C-42.37 75.1275 -46.99 72.8175 -51.75 70.4375 C-61.79852351 62.06373041 -67.84415619 52.75741879 -69.12890625 39.5390625 C-69.69136817 27.0858273 -66.80021159 16.87716568 -59.07421875 6.98046875 C-43.45752438 -10.10603215 -19.13413538 -12.78233735 0 0 Z M-189.75 153.4375 C-195.09459489 161.34067755 -197.05093273 168.54005303 -197.01069641 177.98200989 C-197.01452196 178.9363376 -197.01834751 179.89066531 -197.02228898 180.87391204 C-197.03259836 184.06809718 -197.02863069 187.26210188 -197.0246582 190.45629883 C-197.02900585 192.74797227 -197.03418917 195.03964426 -197.04014587 197.33131409 C-197.05354239 203.55452148 -197.05411373 209.77766816 -197.05158257 216.00088716 C-197.05051316 221.19716623 -197.05539555 226.39343301 -197.060188 231.58970946 C-197.07192033 244.55132529 -197.07105684 257.51290238 -197.06463119 270.47451987 C-197.0594643 281.71984898 -197.07071201 292.9650914 -197.08972941 304.21040336 C-197.10912327 315.76728486 -197.11706981 327.32411512 -197.11360615 338.88101405 C-197.11179355 345.36519851 -197.1144272 351.8493036 -197.12832069 358.33347511 C-197.14090035 364.43282653 -197.13895343 370.53200461 -197.12590981 376.63135338 C-197.12354468 378.86742079 -197.1262764 381.10350041 -197.13453293 383.33955383 C-197.14500739 386.39724944 -197.13689369 389.45436419 -197.1242218 392.51203918 C-197.13159609 393.39221279 -197.13897037 394.2723864 -197.14656812 395.17923194 C-197.06256662 404.8461808 -193.97042287 413.01492799 -187.75 420.4375 C-181.1436546 426.49002004 -173.86066304 430.55587875 -164.80076313 430.56892776 C-163.7986147 430.57276891 -162.79646626 430.57661005 -161.76394969 430.5805676 C-160.66503797 430.57970112 -159.56612626 430.57883463 -158.43391418 430.57794189 C-156.68034348 430.58239858 -156.68034348 430.58239858 -154.89134711 430.5869453 C-151.64549987 430.59412481 -148.39968487 430.59680456 -145.15383089 430.59754276 C-141.65334949 430.59939431 -138.15287955 430.60694221 -134.65240479 430.61367798 C-126.9973244 430.62725827 -119.34224925 430.63328566 -111.68715882 430.63768864 C-106.90633868 430.6404518 -102.12552055 430.64468932 -97.34470177 430.64919281 C-84.10557717 430.66138552 -70.86645419 430.67168454 -57.6273241 430.6750679 C-56.78002422 430.67528747 -55.93272433 430.67550703 -55.05974869 430.67573325 C-54.21043015 430.67595153 -53.36111161 430.67616981 -52.48605615 430.6763947 C-50.76503678 430.67683817 -49.04401741 430.67728473 -47.32299805 430.67773438 C-46.04247259 430.67806652 -46.04247259 430.67806652 -44.73607793 430.67840537 C-30.9072546 430.68235232 -17.078484 430.69980317 -3.24968103 430.7230939 C10.951357 430.74681827 25.15236859 430.75927026 39.35342675 430.76043582 C47.32546727 430.76135202 55.2974391 430.76709029 63.26946068 430.78525543 C70.05875585 430.80067114 76.84796112 430.80576826 83.63727047 430.79751733 C87.0996616 430.79361589 90.56187174 430.79451542 94.02424049 430.80857468 C97.782648 430.82126578 101.54059172 430.81543211 105.29899597 430.80499268 C106.38675408 430.81304908 107.47451219 430.82110548 108.59523267 430.82940602 C118.94965534 430.76219277 127.23138759 428.1095907 135.25 421.4375 C142.84344968 413.59093533 145.86547301 404.12325877 145.7646637 393.39419556 C145.77508199 391.95462716 145.77508199 391.95462716 145.78571075 390.48597658 C145.80388363 387.29721214 145.79374338 384.1091999 145.78344727 380.92041016 C145.79051066 378.62315823 145.79925745 376.32591097 145.80955505 374.02867126 C145.83201224 367.80750514 145.82911761 361.58659387 145.82023358 355.3654027 C145.81511467 350.16422253 145.82242368 344.96308988 145.82970566 339.76191461 C145.84766352 326.78671007 145.84130599 313.81164725 145.82353585 300.83644788 C145.8088452 289.59010053 145.82346283 278.34402051 145.85230602 267.09770758 C145.88176079 255.52597333 145.89214732 243.95437309 145.88312382 232.38260305 C145.87820307 225.89554072 145.88036432 219.40868606 145.90091133 212.92164993 C145.91931435 206.81965864 145.91325259 200.71816254 145.88871193 194.61619759 C145.88371869 192.38300255 145.88715488 190.14976947 145.89986038 187.916605 C145.97211229 174.12082888 146.02524512 161.5513509 135.91796875 150.8984375 C127.50450417 143.52926711 119.38316758 142.13972844 108.47235107 142.16334534 C106.68052348 142.15549032 106.68052348 142.15549032 104.85249734 142.14747661 C101.54463041 142.13508197 98.23697621 142.13163274 94.92910075 142.13207352 C91.35840976 142.13042266 87.78775723 142.11735115 84.21708679 142.10588074 C76.41330106 142.08305287 68.60954256 142.07511259 60.80572796 142.07005429 C55.93074578 142.06679485 51.05577148 142.0602709 46.18079376 142.0530529 C32.67652008 142.03349026 19.1722537 142.01708395 5.66796494 142.01417637 C4.80418118 142.0139888 3.94039743 142.01380123 3.05043842 142.01360798 C1.29943323 142.01324173 -0.45157196 142.01287803 -2.20257714 142.01251686 C-3.07174719 142.01233405 -3.94091724 142.01215124 -4.83642578 142.01196289 C-5.7066598 142.01178234 -6.57689381 142.01160179 -7.47349855 142.01141577 C-21.57315749 142.00787441 -35.67266367 141.98085295 -49.77226964 141.943465 C-64.25701501 141.90536391 -78.74168461 141.88601876 -93.2264812 141.88571686 C-101.35562575 141.88513271 -109.48458804 141.87666829 -117.61368561 141.84771919 C-124.53580081 141.82318122 -131.45766727 141.81593865 -138.37981424 141.83096672 C-141.90929127 141.83812575 -145.43827736 141.83732264 -148.96769905 141.81455612 C-152.80015458 141.79007248 -156.63191358 141.80463022 -160.4644165 141.82276917 C-161.57124322 141.8095692 -162.67806994 141.79636923 -163.81843686 141.78276926 C-173.95847639 141.89219085 -182.95069213 145.73624313 -189.75 153.4375 Z " fill="#08105E" transform="translate(281.75,28.5625)"/>
<path d="M0 0 C1.8871875 0.0309375 1.8871875 0.0309375 3.8125 0.0625 C3.81396656 1.28079215 3.81543312 2.4990843 3.81694412 3.7542944 C3.85266541 32.69035468 3.90893444 61.62632641 3.99042095 90.56229236 C4.00043811 94.12575635 4.01028229 97.68922079 4.02001953 101.25268555 C4.0219609 101.96209107 4.02390228 102.67149659 4.02590248 103.40239925 C4.05690241 114.88086549 4.07389752 126.35931174 4.08569422 137.83781194 C4.0981162 149.62055162 4.12564117 161.40318663 4.16711307 173.18586022 C4.18996888 179.80202993 4.20540948 186.41808429 4.20438385 193.03429985 C4.20363843 199.26333429 4.22154266 205.49203835 4.25366783 211.72098732 C4.26217734 214.00541044 4.26390966 216.28987058 4.25830269 218.57430267 C4.25165742 221.69818982 4.26959722 224.82102743 4.29351807 227.94480896 C4.28575765 228.84463908 4.27799723 229.7444692 4.27000165 230.6715669 C4.36238128 237.50641654 5.79861215 243.81044242 10.56242585 248.95071214 C15.19602647 253.20461777 19.62283598 255.30782905 25.98801136 255.32421303 C27.01511811 255.33167852 28.04222486 255.33914401 29.10045606 255.34683573 C30.7828451 255.34393363 30.7828451 255.34393363 32.4992218 255.3409729 C33.69589122 255.3467653 34.89256063 255.3525577 36.12549275 255.35852563 C39.44351761 255.37258992 42.76134099 255.377756 46.07938111 255.37917423 C49.65876495 255.3828692 53.23810238 255.39802517 56.81745911 255.41178894 C63.01775438 255.43406253 69.21803314 255.44907522 75.41835976 255.45915604 C84.38298443 255.4737417 93.34755159 255.4992782 102.31214251 255.52748732 C116.85659866 255.57295736 131.40106309 255.6095713 145.94555664 255.640625 C160.07415218 255.67080967 174.20272735 255.7051823 188.33129883 255.74511719 C189.65095517 255.74883945 189.65095517 255.74883945 190.99727124 255.75263691 C197.87766049 255.77207665 204.75804905 255.79175928 211.63843739 255.81151867 C245.3631002 255.90830837 279.08778037 255.9839117 312.8125 256.0625 C312.8125 180.1625 312.8125 104.2625 312.8125 26.0625 C313.1425 26.0625 313.4725 26.0625 313.8125 26.0625 C313.90381919 55.82985833 313.97457418 85.59721193 314.01676132 115.36468022 C314.02176393 118.88179225 314.02694124 122.39890401 314.03222656 125.91601562 C314.0332758 126.61618699 314.03432505 127.31635836 314.03540608 128.03774704 C314.05279473 139.36362227 314.08432387 150.68941599 314.12111118 162.01524292 C314.15856359 173.64311546 314.18044566 185.27094057 314.18885398 196.89887059 C314.19406576 203.42738086 314.20630362 209.9557065 314.23542023 216.48415756 C314.26261602 222.63186832 314.27093642 228.77931876 314.26493073 234.92708397 C314.26602908 237.18047819 314.27395787 239.43388132 314.2893219 241.68722343 C314.30931452 244.77128106 314.30440496 247.8543644 314.29351807 250.93844604 C314.30516943 251.82369048 314.3168208 252.70893492 314.32882524 253.62100494 C314.23705929 263.282563 310.55328669 272.09702042 303.8125 279.0625 C294.67901698 286.66224719 285.53540559 288.51528639 273.88841248 288.44345093 C272.12737524 288.45047089 272.12737524 288.45047089 270.33076149 288.45763266 C267.09417223 288.46748464 263.85792413 288.46399823 260.62134373 288.45467401 C257.12232082 288.44786076 253.62334254 288.45837592 250.12432861 288.46661377 C243.27879465 288.4799287 236.43335956 288.47708351 229.58782177 288.46837585 C224.0231653 288.46159142 218.45853646 288.46068586 212.89387703 288.4639473 C212.10087755 288.464407 211.30787806 288.46486669 210.49084829 288.46534032 C208.87972894 288.46629953 207.2686096 288.46727217 205.65749026 288.4682581 C190.56304639 288.47680528 175.46865724 288.46698812 160.37422235 288.450857 C147.4298741 288.43745183 134.48560656 288.43978484 121.54125977 288.45361328 C106.49803736 288.46967649 91.45486286 288.4759841 76.41163307 288.46677649 C74.80685779 288.46582087 73.2020825 288.46487776 71.59730721 288.4639473 C70.80778814 288.46348447 70.01826908 288.46302164 69.2048252 288.46254479 C63.64803273 288.45995732 58.09127071 288.4643206 52.53448296 288.47138596 C45.76100397 288.47980928 38.98762924 288.47750325 32.21416216 288.46154372 C28.75997067 288.45367256 25.30595288 288.45054959 21.85176277 288.46049118 C18.10420308 288.46868571 14.3571324 288.45840944 10.60960388 288.44345093 C8.97871335 288.45348918 8.97871335 288.45348918 7.31487554 288.46373022 C-2.68435914 288.38628694 -10.42006281 285.46344361 -18.1875 279.0625 C-26.13600163 270.40554496 -28.33499084 262.08920344 -28.34140015 250.65843201 C-28.34797353 249.23139713 -28.34797353 249.23139713 -28.3546797 247.77553326 C-28.36804209 244.58529813 -28.37424084 241.39509062 -28.38037109 238.20483398 C-28.3882741 235.91817602 -28.39654318 233.63151931 -28.40515137 231.34486389 C-28.43134941 223.83278592 -28.44667726 216.32070245 -28.4609375 208.80859375 C-28.46629818 206.22065795 -28.47167569 203.63272218 -28.47706985 201.04478645 C-28.49869572 190.27791354 -28.51758248 179.51104384 -28.52869225 168.74415493 C-28.53162167 165.95240207 -28.53458337 163.16064925 -28.53759766 160.36889648 C-28.53834371 159.67506786 -28.53908976 158.98123924 -28.53985842 158.2663855 C-28.55250227 147.03590959 -28.58571507 135.80559234 -28.62739949 124.57519054 C-28.66989632 113.03075912 -28.69298904 101.48643345 -28.69861281 89.94192177 C-28.70226235 83.46592659 -28.71424212 76.99020052 -28.74671555 70.51428032 C-28.7768466 64.41815036 -28.78308967 58.32245164 -28.77133179 52.22626305 C-28.77111148 49.99466594 -28.77938113 47.76304852 -28.79698563 45.53152084 C-28.89902758 31.84665955 -28.99234774 19.21061948 -19 8.59375 C-13.56637996 4.0032779 -7.2670179 -0.11913144 0 0 Z " fill="#CCDDF0" transform="translate(113.1875,170.9375)"/>
<path d="M0 0 C36 0 36 0 41 4 C42.83391166 6.80625344 43.25223877 8.9522237 43.26742554 12.2749939 C43.27595551 13.12165115 43.28448547 13.96830841 43.29327393 14.84062195 C43.29236755 15.76123917 43.29146118 16.68185638 43.29052734 17.63037109 C43.29724457 18.60642807 43.30396179 19.58248505 43.31088257 20.58811951 C43.32988944 23.81661054 43.33378812 27.04489399 43.3359375 30.2734375 C43.34236347 32.51779262 43.34909168 34.7621469 43.35610962 37.00650024 C43.36808906 41.71236107 43.37178974 46.41814844 43.37060547 51.12402344 C43.37040223 57.15226528 43.3977072 63.18003596 43.43214989 69.20816612 C43.45439366 73.84416871 43.45844378 78.48005745 43.45738602 83.11610794 C43.45974566 85.33845265 43.46858958 87.56080032 43.48405075 89.7830925 C43.50365941 92.89267672 43.49789237 96.00123896 43.48583984 99.11083984 C43.49707886 100.0274086 43.50831787 100.94397736 43.51989746 101.88832092 C43.46553131 107.4117721 42.74123911 110.65209636 39 115 C28.16913243 122.22057838 13.01708279 117 0 117 C0 78.39 0 39.78 0 0 Z " fill="#8B93AE" transform="translate(448,256)"/>
<path d="M0 0 C0 38.61 0 77.22 0 117 C-36 117 -36 117 -41 113 C-42.83391166 110.19374656 -43.25223877 108.0477763 -43.26742554 104.7250061 C-43.27595551 103.87834885 -43.28448547 103.03169159 -43.29327393 102.15937805 C-43.29236755 101.23876083 -43.29146118 100.31814362 -43.29052734 99.36962891 C-43.29724457 98.39357193 -43.30396179 97.41751495 -43.31088257 96.41188049 C-43.32988944 93.18338946 -43.33378812 89.95510601 -43.3359375 86.7265625 C-43.34236347 84.48220738 -43.34909168 82.2378531 -43.35610962 79.99349976 C-43.36808906 75.28763893 -43.37178974 70.58185156 -43.37060547 65.87597656 C-43.37040223 59.84773472 -43.3977072 53.81996404 -43.43214989 47.79183388 C-43.45439366 43.15583129 -43.45844378 38.51994255 -43.45738602 33.88389206 C-43.45974566 31.66154735 -43.46858958 29.43919968 -43.48405075 27.2169075 C-43.50365941 24.10732328 -43.49789237 20.99876104 -43.48583984 17.88916016 C-43.49707886 16.9725914 -43.50831787 16.05602264 -43.51989746 15.11167908 C-43.46553131 9.5882279 -42.74123911 6.34790364 -39 2 C-28.16913243 -5.22057838 -13.01708279 0 0 0 Z " fill="#8B93AE" transform="translate(64,256)"/>
<path d="M0 0 C9.08684714 5.51757099 13.94763671 12.39369137 17.27734375 22.3828125 C18.30933922 32.62905326 16.81470092 41.47167128 10.4453125 49.76953125 C3.66878912 57.00049604 -5.00000833 61.2264103 -14.97265625 61.7578125 C-24.50858825 61.45020179 -31.77509723 57.40856869 -38.5546875 50.8984375 C-45.0011771 43.4181865 -47.11038015 35.48183386 -46.9921875 25.80078125 C-46.26005807 16.51653121 -41.69875184 9.39668801 -34.72265625 3.3828125 C-24.44082104 -3.93978673 -11.57008134 -5.50589561 0 0 Z " fill="#0A125F" transform="translate(334.72265625,237.6171875)"/>
<path d="M0 0 C9.08684714 5.51757099 13.94763671 12.39369137 17.27734375 22.3828125 C18.30933922 32.62905326 16.81470092 41.47167128 10.4453125 49.76953125 C3.66878912 57.00049604 -5.00000833 61.2264103 -14.97265625 61.7578125 C-24.50858825 61.45020179 -31.77509723 57.40856869 -38.5546875 50.8984375 C-45.0011771 43.4181865 -47.11038015 35.48183386 -46.9921875 25.80078125 C-46.26005807 16.51653121 -41.69875184 9.39668801 -34.72265625 3.3828125 C-24.44082104 -3.93978673 -11.57008134 -5.50589561 0 0 Z " fill="#0A125F" transform="translate(206.72265625,237.6171875)"/>
<path d="M0 0 C3.51563365 1.31729339 6.89338297 2.8439466 10.30859375 4.40234375 C35.96621199 15.8684105 65.47484685 12.75330622 90.95166016 3.01904297 C93.3423786 2.08359744 95.7026202 1.1486899 98 0 C101.05920574 -0.42071592 103.9467746 -0.48514117 107 0 C109.75569447 2.18159145 111.43588747 3.87177494 113 7 C113.0546875 9.0234375 113.0546875 9.0234375 112.875 11.375 C112.83117187 12.14585937 112.78734375 12.91671875 112.7421875 13.7109375 C111.65571575 17.0618451 109.91523576 18.06953557 107 20 C104.5061379 21.25796584 102.06438493 22.41306762 99.5 23.5 C98.78932373 23.80260742 98.07864746 24.10521484 97.34643555 24.41699219 C66.725765 37.22393408 31.83291928 37.58041282 1 25 C-11.11931421 19.79420367 -11.11931421 19.79420367 -15 14 C-15.62376056 9.00991556 -15.07972115 5.99223111 -12 2 C-7.94316513 -0.70455658 -4.6816885 -0.76489559 0 0 Z " fill="#0B1360" transform="translate(207,361)"/>
<path d="M0 0 C0.33 0 0.66 0 1 0 C1.09269069 13.0650792 1.16376058 26.13008014 1.20724869 39.19542122 C1.22812109 45.26223492 1.25643301 51.32882361 1.30175781 57.39550781 C1.34522702 63.25047898 1.36913972 69.10523376 1.37950897 74.96035385 C1.38689833 77.19388104 1.40132799 79.42739641 1.42292023 81.66083145 C1.45196775 84.78993552 1.45595534 87.91814603 1.45410156 91.04736328 C1.47567322 92.43164268 1.47567322 92.43164268 1.49768066 93.84388733 C1.46214839 99.38877737 0.76312256 102.63759684 -3 107 C-6.78842473 109.52561648 -9.78533329 109.25391573 -14.16796875 109.1953125 C-15.36018791 109.19106766 -15.36018791 109.19106766 -16.57649231 109.18673706 C-19.11364838 109.17554705 -21.65045072 109.15044491 -24.1875 109.125 C-25.90819802 109.11496866 -27.62890159 109.10584308 -29.34960938 109.09765625 C-33.56665199 109.07731355 -37.7829303 109.03816353 -42 109 C-42 98.44 -42 87.88 -42 77 C-39.37546875 76.93941406 -36.7509375 76.87882812 -34.046875 76.81640625 C-31.50176221 76.7545774 -28.95669216 76.69120606 -26.41162109 76.62768555 C-24.64440728 76.58440486 -22.8771535 76.54272495 -21.10986328 76.50268555 C-18.5679114 76.44481649 -16.02615941 76.38117019 -13.484375 76.31640625 C-12.69569031 76.29969376 -11.90700562 76.28298126 -11.09442139 76.26576233 C-7.52428882 76.16959706 -4.48605939 75.87151485 -1 75 C-0.67 50.25 -0.34 25.5 0 0 Z " fill="#6D7591" transform="translate(490,264)"/>
<path d="M0 0 C0.33 0 0.66 0 1 0 C1.33 24.75 1.66 49.5 2 75 C6.22586282 76.0564657 10.16339828 76.2248433 14.484375 76.31640625 C15.70776581 76.3475779 15.70776581 76.3475779 16.95587158 76.37937927 C19.55383105 76.44461297 22.15188913 76.50363768 24.75 76.5625 C26.514333 76.60571014 28.27865613 76.64932522 30.04296875 76.69335938 C34.36187968 76.80102743 38.68086854 76.9002951 43 77 C43 87.56 43 98.12 43 109 C37.96368026 109.09198758 32.93029031 109.17157194 27.89379883 109.21972656 C26.18178414 109.23980505 24.46983772 109.26707392 22.75805664 109.30175781 C20.29295992 109.35044401 17.8287721 109.37300573 15.36328125 109.390625 C14.22080681 109.42159271 14.22080681 109.42159271 13.05525208 109.45318604 C9.41555113 109.45471253 7.23200598 109.14206921 4.10229492 107.22558594 C0.94892349 103.88728214 -0.25192251 101.27284942 -0.24050903 96.68463135 C-0.24325836 95.82930313 -0.24600769 94.97397491 -0.24884033 94.09272766 C-0.24164978 93.16268417 -0.23445923 92.23264069 -0.22705078 91.27441406 C-0.22734283 90.28871933 -0.22763489 89.3030246 -0.22793579 88.28746033 C-0.22654269 85.03009227 -0.21098223 81.77295309 -0.1953125 78.515625 C-0.1915823 76.25689824 -0.18873536 73.99816987 -0.18673706 71.73944092 C-0.17910114 65.7947747 -0.15945291 59.85020622 -0.1373291 53.90557861 C-0.11686985 47.83940961 -0.10773517 41.77322481 -0.09765625 35.70703125 C-0.07620706 23.80464456 -0.04207153 11.90233041 0 0 Z " fill="#6D7591" transform="translate(21,264)"/>
<path d="M0 0 C5.13323344 4.54991146 8.60013454 8.40923689 9.203125 15.33203125 C9.33596323 22.36138745 8.37965794 27.31525771 3.5625 32.75 C-2.50036422 38.07349053 -6.41646107 39.32141816 -14.46875 39.21484375 C-21.98133277 38.57720169 -26.11073588 34.40520415 -30.75 28.9375 C-33.79731138 24.21416736 -33.46869228 18.42343923 -33 13 C-31.50750607 7.29340557 -28.32154086 2.6250786 -23.5 -0.75 C-15.98421124 -4.50789438 -7.25361644 -4.12460543 0 0 Z " fill="#FD3A64" transform="translate(268,46)"/>
<path d="M0 0 C1 2 1 2 1.375 5.6875 C2.27639394 13.14081704 5.50543308 18.96747621 11 24 C16.82755867 28.23009193 22.95946708 28.74115688 30 29 C27.03262749 34.02170732 23.95228802 37.76439857 18.11328125 39.58984375 C11.28909588 40.91431596 5.10468189 40.4712897 -1 37 C-6.13323344 32.45008854 -9.60013454 28.59076311 -10.203125 21.66796875 C-10.35749464 13.49924214 -8.65123532 8.18103864 -3 2 C-2.01 1.34 -1.02 0.68 0 0 Z " fill="#DF2E55" transform="translate(245,45)"/>
<path d="M0 0 C3.24544251 0.04071344 4.2295947 0.30007938 7.125 2.0625 C10.47891566 5.61370482 10.47891566 5.61370482 11.25 8.3125 C11.05743088 13.60815084 9.94046589 16.51020181 6.25 20.3125 C3.04386153 21.91556924 -0.27139997 21.79990461 -3.75 21.3125 C-7.14890142 19.24360348 -9.63937011 17.19970463 -10.75 13.3125 C-10.66804478 8.80496294 -10.23833209 6.8740819 -7.25 3.4375 C-6.0125 2.385625 -6.0125 2.385625 -4.75 1.3125 C-3.75 0.3125 -3.75 0.3125 0 0 Z " fill="#A9AEBE" transform="translate(319.75,255.6875)"/>
<path d="M0 0 C3.24544251 0.04071344 4.2295947 0.30007938 7.125 2.0625 C10.47891566 5.61370482 10.47891566 5.61370482 11.25 8.3125 C11.05743088 13.60815084 9.94046589 16.51020181 6.25 20.3125 C3.04386153 21.91556924 -0.27139997 21.79990461 -3.75 21.3125 C-7.14890142 19.24360348 -9.63937011 17.19970463 -10.75 13.3125 C-10.66804478 8.80496294 -10.23833209 6.8740819 -7.25 3.4375 C-6.0125 2.385625 -6.0125 2.385625 -4.75 1.3125 C-3.75 0.3125 -3.75 0.3125 0 0 Z " fill="#A9AEBE" transform="translate(191.75,255.6875)"/>
</svg>
